<svg xmlns="http://www.w3.org/2000/svg" viewBox="0 0 24 24" fill="none">
  <path d="M7.5 8.5c0 1.1.9 2 2 2s2-.9 2-2-.9-2-2-2-2 .9-2 2zM14.5 8.5c0 1.1.9 2 2 2s2-.9 2-2-.9-2-2-2-2 .9-2 2z" fill="currentColor"/>
  <path d="M4 6.5c1.8-1.2 3.6-1.9 5.4-2.1.1.3.2.7.3 1.1 0 0 2-.9 6.9-.9 0 0 .1-1.1.3-1.9 0 0 2.4.4 3.6 1.6 0 0-.5 1.8-2.1 3.2 0 0-1.1 1-2.1 1.6 0 0-.9.5-1.8.9-.8.3-1.6.6-2.4.8-.9.2-1.9.4-3 .5-1.3.1-2.7.2-4.1.2-1.3 0-2.4-.2-3.2-.6 0 0 .5-1.1 1.6-1.9 0 0 .9-.6 1.8-1.2l.1-.1c-.8-.5-1.5-1.1-1.9-1.5z" fill="currentColor" opacity="0.08"/>
</svg>
